<svg width="168" height="42" viewBox="0 0 168 42" fill="none" xmlns="http://www.w3.org/2000/svg">
<path d="M16.5257 32.5282H12.8926V30.6588H22.0381V32.5282H18.405V41.7507H16.4004V32.5282H16.5257ZM31.0584 41.7507H24.4185V30.6588H30.8078V32.5282H26.2977V35.27H30.3067V37.1395H26.2977V40.0059H30.9331V41.7507H31.0584ZM40.705 30.6588H42.9601L39.2017 36.0178L43.0854 41.6261H40.8303L37.9488 37.5134L35.0674 41.6261H32.8123L36.696 36.0178L32.9376 30.6588H35.1927L37.9488 34.6469L40.705 30.6588ZM54.486 41.7507H52.4815V37.0148H47.4702V41.7507H45.4657V30.6588H47.4702V35.1454H52.6068V30.6588H54.486V41.7507ZM57.3674 36.2671C57.3674 34.6469 57.8686 33.276 58.9961 32.1543C60.1236 31.0326 61.5017 30.5341 63.1304 30.5341C64.7591 30.5341 66.1372 31.0326 67.2647 32.1543C68.3922 33.276 68.8933 34.6469 68.8933 36.2671C68.8933 37.8872 68.3922 39.2582 67.2647 40.3798C66.1372 41.5015 64.7591 42 63.1304 42C61.5017 42 60.1236 41.5015 58.9961 40.3798C57.8686 39.2582 57.3674 37.8872 57.3674 36.2671ZM59.372 36.2671C59.372 37.3887 59.7478 38.2611 60.3742 39.0089C61.0006 39.7567 62.0029 40.1306 63.0051 40.1306C64.1326 40.1306 65.0096 39.7567 65.7613 39.0089C66.3877 38.2611 66.7635 37.3887 66.7635 36.2671C66.7635 35.1454 66.3877 34.1484 65.636 33.5252C64.8843 32.7774 64.0074 32.4036 63.0051 32.4036C61.8776 32.4036 61.0006 32.7774 60.3742 33.5252C59.7478 34.1484 59.372 35.1454 59.372 36.2671ZM79.9181 41.7507H78.0389V32.5282H74.7816L74.531 34.6469C74.4057 35.8932 74.2804 37.0148 74.0299 37.8872C73.7793 38.7596 73.654 39.5074 73.4035 40.0059C73.1529 40.5045 72.9023 41.003 72.5265 41.2522C72.1507 41.5015 71.9001 41.7507 71.5242 41.7507C71.1484 41.8754 70.7726 41.8754 70.2714 41.7507V39.8813C70.522 39.8813 70.6473 39.8813 70.8978 39.8813C71.0231 39.8813 71.2737 39.632 71.399 39.3828C71.6495 39.1335 71.7748 38.7596 71.9001 38.2611C72.2759 37.1395 72.5265 35.3947 72.7771 32.9021L72.9023 30.6588H79.9181V41.7507ZM82.7996 36.2671C82.7996 34.6469 83.3007 33.276 84.4282 32.1543C85.5558 31.0326 86.9339 30.5341 88.5625 30.5341C90.1912 30.5341 91.5693 31.0326 92.6968 32.1543C93.8243 33.276 94.3254 34.6469 94.3254 36.2671C94.3254 37.8872 93.8243 39.2582 92.6968 40.3798C91.5693 41.5015 90.1912 42 88.5625 42C86.9339 42 85.5558 41.5015 84.4282 40.3798C83.3007 39.2582 82.7996 37.8872 82.7996 36.2671ZM84.9293 36.2671C84.9293 37.3887 85.3052 38.2611 85.9316 39.0089C86.558 39.7567 87.5603 40.1306 88.5625 40.1306C89.69 40.1306 90.567 39.7567 91.3187 39.0089C91.9451 38.2611 92.321 37.3887 92.321 36.2671C92.321 35.1454 91.9451 34.1484 91.1934 33.5252C90.4417 32.7774 89.5648 32.4036 88.5625 32.4036C87.435 32.4036 86.558 32.7774 85.9316 33.5252C85.1799 34.1484 84.9293 35.1454 84.9293 36.2671ZM99.2114 41.7507H97.2069V30.6588H103.471V32.5282H99.2114V41.7507ZM108.106 41.7507H106.102V30.6588H108.106V41.7507ZM110.988 28.7893C110.988 28.5401 111.113 28.2908 111.238 28.0415C111.489 27.9169 111.74 27.7923 111.99 27.7923C112.241 27.7923 112.491 27.9169 112.742 28.0415C112.992 28.1662 112.992 28.4154 112.992 28.7893C112.992 29.1632 112.867 29.4125 112.742 29.5371C112.617 29.6617 112.366 29.7863 111.99 29.7863C111.74 29.7863 111.489 29.6617 111.238 29.5371C111.113 29.2878 110.988 29.0386 110.988 28.7893ZM114.245 41.7507H112.241V30.6588H114.245V41.7507ZM113.619 28.7893C113.619 28.5401 113.744 28.2908 113.869 28.0415C114.12 27.9169 114.37 27.7923 114.621 27.7923C114.872 27.7923 115.122 27.9169 115.373 28.0415C115.623 28.2908 115.623 28.4154 115.623 28.7893C115.623 29.1632 115.498 29.4125 115.373 29.5371C115.247 29.7863 114.997 29.7863 114.621 29.7863C114.245 29.7863 113.995 29.6617 113.869 29.5371C113.744 29.2878 113.619 29.0386 113.619 28.7893ZM129.905 39.2582L130.657 40.7537C130.281 41.1276 129.78 41.3769 129.154 41.6261C128.527 41.8754 127.776 42 127.149 42C125.395 42 124.017 41.5015 123.015 40.3798C122.013 39.3828 121.386 38.0119 121.386 36.2671C121.386 34.6469 121.887 33.276 122.89 32.1543C123.892 31.0326 125.27 30.5341 127.024 30.5341C128.402 30.5341 129.53 30.908 130.406 31.6558L129.53 33.1513C128.778 32.6528 127.901 32.4036 127.024 32.4036C126.022 32.4036 125.145 32.7774 124.393 33.4006C123.767 34.1484 123.391 35.0208 123.391 36.2671C123.391 37.3887 123.767 38.3858 124.393 39.1335C125.145 39.8813 126.022 40.2552 127.149 40.2552C128.277 40.1306 129.154 39.8813 129.905 39.2582ZM142.183 41.7507H140.304V37.0148H135.167V41.7507H133.163V30.6588H135.167V35.1454H140.304V30.6588H142.183V41.7507ZM153.082 30.6588H155.087L151.328 39.1335C150.953 40.0059 150.451 40.6291 150.076 41.1276C149.575 41.5015 149.073 41.7507 148.322 41.7507C147.57 41.7507 147.194 41.6261 146.818 41.2522L147.445 39.632C147.695 39.7567 147.946 39.8813 148.322 39.8813C148.823 39.8813 149.199 39.632 149.449 39.1335L149.575 38.7596L144.689 30.6588H146.944L150.577 36.8902L153.082 30.6588Z" fill="#535353"/>
<path d="M10.6439 11.7151L21.4181 24.8012H14.5276L5.88319 13.9585V24.8012H0.496094V0.249263H5.88319V10.2196L14.1518 0.249263H20.7917L10.6439 11.7151ZM120.516 5.35906H128.032V24.8012H133.42V5.35906H140.936V0.249263H120.39V5.35906H120.516ZM36.953 14.9555L44.5951 24.8012H38.0805L31.6911 16.0772H29.6866V24.8012H24.2995V0.249263H24.926C26.0535 0.249263 27.3063 0.249263 28.6844 0.249263C30.0625 0.249263 31.19 0.249263 32.067 0.249263C39.5839 0.249263 41.2125 4.48665 41.2125 8.1009C41.2125 9.97033 40.7114 11.5905 39.7092 12.8368C38.8322 13.7092 37.9552 14.457 36.953 14.9555ZM30.3131 5.35906C30.0625 5.35906 29.9372 5.35906 29.6866 5.35906V10.9674H31.6911C32.8187 10.9674 33.8209 10.7181 34.5726 10.095C35.199 9.59645 35.5749 8.84867 35.5749 7.97627C35.5749 6.72998 35.199 5.23443 31.8164 5.23443C31.6911 5.23443 31.5659 5.23443 31.3153 5.23443C31.0647 5.35906 30.6889 5.35906 30.3131 5.35906ZM111.871 0.249263L122.27 24.8012H116.507L114.126 18.819H104.981L102.6 24.8012H97.088L107.361 0.249263H111.871ZM109.491 7.72701L106.985 13.7092H111.996L109.491 7.72701ZM167.496 12.5875C167.496 16.2018 166.243 19.3175 163.863 21.6855C161.483 24.0534 158.351 25.2997 154.717 25.2997C151.084 25.2997 147.952 24.178 145.572 21.8101C143.192 19.4421 141.939 16.451 141.939 12.7122C141.939 9.22256 143.192 6.10683 145.572 3.73888C147.952 1.37092 151.084 0.124634 154.717 0.124634C158.351 0.124634 161.483 1.2463 163.863 3.61425C166.243 5.73294 167.496 8.84867 167.496 12.5875ZM159.979 17.9466C161.357 16.451 161.984 14.7062 161.984 12.4629C161.984 10.2196 161.357 8.47478 159.854 6.97923C158.476 5.60831 156.722 4.86054 154.717 4.86054C152.588 4.86054 150.959 5.60831 149.581 6.97923C148.203 8.35015 147.576 10.2196 147.576 12.4629C147.576 14.7062 148.203 16.451 149.581 17.822C150.959 19.3175 152.588 19.9407 154.717 19.9407C156.972 20.0653 158.601 19.4421 159.979 17.9466ZM94.0812 0.249263L87.8172 16.451L81.3025 0.249263H75.5396L85.6874 24.8012H89.6964L99.5936 0.249263H94.0812Z" fill="#535353"/>
<path d="M71.1011 2.49432C69.594 0.997728 67.5844 0.124716 65.4493 0.124716C63.3142 0.124716 61.3047 0.997728 59.7976 2.49432L59.4208 2.86847L58.9184 2.3696C57.4113 0.873012 55.4017 0 53.2666 0C51.1315 0 49.122 0.873012 47.6148 2.3696C46.1077 3.8662 45.2285 5.86165 45.2285 7.98182C45.2285 10.102 46.1077 12.0975 47.6148 13.594L58.5416 24.4443C58.7928 24.6938 59.044 24.8185 59.4208 24.8185C59.7975 24.8185 60.0487 24.6938 60.2999 24.4443L71.2267 13.594C72.7339 12.0975 73.613 10.102 73.613 7.98182C73.613 5.86165 72.7338 3.99091 71.1011 2.49432Z" fill="#00B5FF"/>
<mask id="mask0_143_5110" style="mask-type:alpha" maskUnits="userSpaceOnUse" x="45" y="0" width="29" height="25">
<path d="M71.1011 2.49432C69.594 0.997728 67.5844 0.124716 65.4493 0.124716C63.3142 0.124716 61.3047 0.997728 59.7976 2.49432L59.4208 2.86847L58.9184 2.3696C57.4113 0.873012 55.4017 0 53.2666 0C51.1315 0 49.122 0.873012 47.6148 2.3696C46.1077 3.8662 45.2285 5.86165 45.2285 7.98182C45.2285 10.102 46.1077 12.0975 47.6148 13.594L58.5416 24.4443C58.7928 24.6938 59.044 24.8185 59.4208 24.8185C59.7975 24.8185 60.0487 24.6938 60.2999 24.4443L71.2267 13.594C72.7339 12.0975 73.613 10.102 73.613 7.98182C73.613 5.86165 72.7338 3.99091 71.1011 2.49432Z" fill="#00B5FF"/>
</mask>
<g mask="url(#mask0_143_5110)">
<rect x="44.293" y="10.3227" width="30.0675" height="15.0844" fill="#FFBC00"/>
</g>
</svg>
