<svg width="71" height="71" viewBox="0 0 71 71" fill="none" xmlns="http://www.w3.org/2000/svg">
<path d="M33.3546 19.3865C26.3705 20.233 20.6562 25.8415 19.7038 32.7198C19.1747 36.4235 19.9155 39.9156 21.6086 42.8785L19.4922 51.0267L27.6403 49.0161C30.6033 50.7092 34.0954 51.45 37.7991 50.9209C44.7832 49.8627 50.2858 44.2542 51.1324 37.2701C52.4022 26.7939 43.725 18.1166 33.3546 19.3865Z" fill="white"/>
<path d="M35.3654 51.873C32.614 51.873 29.9685 51.238 27.5347 49.8624L19.704 51.7671C19.3865 51.873 19.1749 51.7671 18.9632 51.5555C18.7516 51.3439 18.6458 51.0264 18.7516 50.8148L20.6564 42.9841C18.9632 39.8095 18.3283 36.2116 18.8574 32.6137C19.9156 25.2063 25.8415 19.492 33.249 18.5396C38.4341 17.9047 43.5135 19.5978 47.1114 23.3015C50.8151 27.0052 52.5082 31.9788 51.8733 37.164C50.9209 44.5714 45.2066 50.4973 37.7992 51.5555C37.0585 51.7671 36.2119 51.873 35.3654 51.873ZM27.6405 48.1693C27.7463 48.1693 27.9579 48.1693 28.0638 48.2751C31.0267 49.9682 34.3072 50.4973 37.6934 50.074C44.3601 49.1216 49.5453 43.7248 50.3918 37.0581C50.9209 32.4021 49.4394 27.746 46.0532 24.4655C42.7728 21.1851 38.1167 19.5978 33.4606 20.1269C26.7939 20.9735 21.3971 26.1587 20.4447 32.8253C19.9156 36.2116 20.5505 39.492 22.2437 42.455C22.3495 42.6666 22.3495 42.8782 22.3495 42.9841L20.6564 49.9682L27.5347 48.2751C27.5347 48.1693 27.6405 48.1693 27.6405 48.1693Z" fill="#2B2929"/>
<path d="M35.3659 40.3389C34.9426 40.3389 34.5194 40.0214 34.5194 39.4923V38.8574C34.5194 36.3177 36.0008 35.1537 37.1649 34.3072C38.2231 33.5664 38.9638 32.9315 38.9638 31.45C38.9638 29.7569 37.9056 28.3812 36.4241 27.958C35.2601 27.6405 33.9903 27.8521 33.0379 28.4871C32.0855 29.2278 31.5564 30.286 31.5564 31.45C31.5564 31.8733 31.2389 32.2966 30.7098 32.2966C30.2866 32.2966 29.8633 31.9791 29.8633 31.45C29.8633 29.7569 30.7098 28.1696 31.9797 27.2172C33.3553 26.159 35.0485 25.9474 36.7416 26.3707C38.9638 27.0056 40.4453 29.0162 40.4453 31.45C40.4453 33.7781 39.0696 34.7304 37.9056 35.577C36.8474 36.4236 35.895 37.0585 35.895 38.8574V39.4923C36.2125 40.0214 35.895 40.3389 35.3659 40.3389Z" fill="#FFBC57"/>
<path d="M36.1056 43.4075C35.6823 42.9843 35.0474 42.9843 34.6241 43.4075C34.4125 43.6192 34.3066 43.8308 34.3066 44.1483C34.3066 44.4658 34.4125 44.6774 34.6241 44.889C34.8357 45.1007 35.0474 45.2065 35.3648 45.2065C35.6823 45.2065 35.8939 45.1007 36.1056 44.889C36.3172 44.6774 36.423 44.4658 36.423 44.1483C36.423 43.8308 36.3172 43.5134 36.1056 43.4075Z" fill="#FFBC57"/>
<path d="M35.3645 66.8996C34.9412 66.8996 34.5179 66.5821 34.5179 66.053C34.5179 65.6297 34.8354 65.2065 35.3645 65.2065C51.8724 65.2065 65.3116 51.7673 65.3116 35.2594C65.3116 18.9631 51.8724 5.52393 35.3645 5.52393C18.9624 5.52393 5.5232 18.9631 5.5232 35.3652C5.5232 35.8943 5.20574 36.2118 4.67664 36.2118C4.25336 36.2118 3.83008 35.8943 3.83008 35.3652C3.83008 18.0107 17.9042 3.83081 35.2586 3.83081C52.6131 3.83081 66.8989 18.0107 66.8989 35.3652C66.8989 52.7197 52.719 66.8996 35.3645 66.8996Z" fill="#2B2929"/>
<path d="M38.539 69.2281H32.1898C29.8618 69.2281 27.957 67.3233 27.957 64.9953C27.957 62.6672 29.8618 60.7625 32.1898 60.7625H38.539C40.8671 60.7625 42.7718 62.6672 42.7718 64.9953C42.7718 67.4291 40.9729 69.2281 38.539 69.2281Z" fill="white"/>
<path d="M38.5399 70.0743H32.1907C29.4394 70.0743 27.1113 67.852 27.1113 64.9949C27.1113 62.2436 29.3336 59.9155 32.1907 59.9155H38.5399C41.2912 59.9155 43.6193 62.1377 43.6193 64.9949C43.6193 67.852 41.397 70.0743 38.5399 70.0743ZM32.1907 61.6086C30.2859 61.6086 28.6986 63.196 28.6986 65.1007C28.6986 67.0055 30.2859 68.5928 32.1907 68.5928H38.5399C40.4447 68.5928 42.032 67.0055 42.032 65.1007C42.032 63.196 40.4447 61.6086 38.5399 61.6086H32.1907Z" fill="#2B2929"/>
<path d="M9.96756 47.0058C5.31148 47.0058 1.50195 43.1962 1.50195 38.5402V32.191C1.50195 27.5349 5.31148 23.7253 9.96756 23.7253C11.1316 23.7253 12.084 24.6777 12.084 25.8417V44.8894C12.084 46.1592 11.1316 47.0058 9.96756 47.0058Z" fill="white"/>
<path d="M9.96842 47.852C4.88905 47.852 0.65625 43.725 0.65625 38.5398V32.1906C0.65625 27.1112 4.78323 22.8784 9.96842 22.8784C11.5557 22.8784 12.9314 24.1483 12.9314 25.8414V44.889C12.9314 46.5821 11.6615 47.852 9.96842 47.852ZM9.96842 24.5715C5.73561 24.5715 2.24355 28.0636 2.24355 32.2964V38.6456C2.24355 42.8784 5.73561 46.3705 9.96842 46.3705C10.7092 46.3705 11.3441 45.7356 11.3441 44.9948V25.9472C11.3441 25.2065 10.7092 24.5715 9.96842 24.5715Z" fill="#2B2929"/>
<path d="M6.79383 42.561C6.37055 42.561 5.94727 42.2435 5.94727 41.7144V29.016C5.94727 28.5927 6.26473 28.1694 6.79383 28.1694C7.21711 28.1694 7.64039 28.4869 7.64039 29.016V41.7144C7.64039 42.2435 7.32293 42.561 6.79383 42.561Z" fill="#2B2929"/>
<path d="M60.7629 47.0058C59.5989 47.0058 58.6465 46.0534 58.6465 44.8894V25.8417C58.6465 24.6777 59.5989 23.7253 60.7629 23.7253C65.419 23.7253 69.2285 27.5349 69.2285 32.191V38.5402C69.2285 43.3021 65.5248 47.0058 60.7629 47.0058Z" fill="white"/>
<path d="M60.7614 47.852C59.1741 47.852 57.9043 46.5821 57.9043 44.889V25.8414C57.9043 24.2541 59.1741 22.8784 60.7614 22.8784C65.8408 22.8784 70.0736 27.0054 70.0736 32.1906V38.5398C70.0736 43.725 65.9466 47.852 60.7614 47.852ZM60.7614 24.5715C60.0207 24.5715 59.4916 25.2065 59.4916 25.9472V44.9948C59.4916 45.7356 60.1265 46.3705 60.7614 46.3705C64.9942 46.3705 68.4863 42.8784 68.4863 38.6456V32.2964C68.4863 27.9578 64.9942 24.5715 60.7614 24.5715Z" fill="#2B2929"/>
<path d="M63.9364 42.561C63.5131 42.561 63.0898 42.2435 63.0898 41.7144V29.016C63.0898 28.5927 63.4073 28.1694 63.9364 28.1694C64.3597 28.1694 64.783 28.4869 64.783 29.016V41.7144C64.783 42.2435 64.4655 42.561 63.9364 42.561Z" fill="#2B2929"/>
<path d="M17.4813 14.5187C17.5871 14.5187 17.5871 14.4129 17.4813 14.5187C17.2697 14.6245 16.9522 14.8362 16.6348 14.942C17.058 14.8362 17.2697 14.7304 17.4813 14.5187Z" fill="#FFBC57"/>
<path d="M35.3652 1.50317C26.8996 1.50317 19.1747 4.57196 13.2488 9.75714C12.1906 10.6037 12.1906 12.191 13.143 13.1434L14.4128 14.4132C15.2594 15.2598 16.635 15.2598 17.5874 14.519C22.3493 10.3921 28.5927 7.9582 35.471 7.9582C42.2435 7.9582 48.5927 10.3921 53.3546 14.519C54.307 15.2598 55.6827 15.2598 56.5292 14.4132L57.7991 13.1434C58.7515 12.191 58.7515 10.6037 57.6933 9.75714C51.6615 4.67778 43.8308 1.50317 35.3652 1.50317Z" fill="white"/>
<path d="M54.8371 15.8945C54.0963 15.8945 53.3556 15.6828 52.8265 15.1537C47.9588 10.9209 41.8212 8.69872 35.3662 8.69872C29.017 8.69872 22.8794 11.0268 18.0117 15.1537C16.7418 16.2119 14.9429 16.2119 13.7789 15.0479L12.509 13.7781C11.8741 13.1432 11.5566 12.2966 11.5566 11.45C11.5566 10.6035 11.9799 9.75692 12.6148 9.22782C18.8582 3.83099 26.9006 0.762207 35.2603 0.762207C43.6201 0.762207 51.6625 3.72517 57.9058 9.22782C58.5408 9.75692 58.964 10.6035 58.964 11.45C58.964 12.2966 58.6466 13.1432 58.0117 13.7781L56.7418 15.0479C56.4244 15.577 55.5778 15.8945 54.8371 15.8945ZM35.3662 7.11141C42.1387 7.11141 48.5937 9.54528 53.7789 13.8839C54.4138 14.413 55.2603 14.413 55.8953 13.7781L57.1651 12.5082C57.4826 12.1908 57.5884 11.7675 57.5884 11.3442C57.5884 10.9209 57.3767 10.4977 57.0593 10.286C51.0275 5.20665 43.3027 2.34951 35.3662 2.34951C27.4297 2.34951 19.7048 5.20665 13.7789 10.3918C13.4614 10.7093 13.2498 11.0268 13.2498 11.45C13.2498 11.8733 13.3556 12.2966 13.673 12.6141L14.9429 13.8839C15.472 14.413 16.4244 14.5188 17.0593 13.9897C22.1387 9.54528 28.6995 7.11141 35.3662 7.11141Z" fill="#2B2929"/>
</svg>
