<svg width="66" height="67" viewBox="0 0 66 67" fill="none" xmlns="http://www.w3.org/2000/svg">
<path d="M60.8008 31.2L32.8008 21.2L4.80078 31.2L32.8008 41.2L60.8008 31.2Z" fill="white"/>
<path d="M27.8008 23L4.80078 31.2L27.8008 39.5V23Z" fill="white"/>
<path d="M55.0008 33.2999L32.8008 25.3999V41.1999L55.0008 33.2999Z" fill="white"/>
<path d="M32.8 41.9999C32.7 41.9999 32.6 41.9999 32.5 41.9999L4.5 31.9999C4.2 31.8999 4 31.5999 4 31.2999C4 30.9999 4.2 30.6999 4.5 30.5999L32.5 20.5999C32.7 20.4999 32.8 20.4999 33 20.5999L61 30.5999C61.3 30.6999 61.5 30.9999 61.5 31.2999C61.5 31.5999 61.3 31.8999 61 31.9999L33 41.9999C32.9 41.9999 32.8 41.9999 32.8 41.9999ZM7 31.1999L32.8 40.3999L58.6 31.1999L32.8 21.9999L7 31.1999Z" fill="#2B2929"/>
<path d="M28.8008 14.2L0.800781 24.2L4.80078 31.2L32.8008 21.2L28.8008 14.2Z" fill="white"/>
<path d="M32.8008 21.2L28.8008 14.2L22.5008 16.5L23.8008 18.7999C24.4008 19.8999 23.9008 21.3 22.7008 21.7L3.30078 28.6L4.80078 31.2L32.8008 21.2Z" fill="white"/>
<path d="M4.80039 32C4.50039 32 4.30039 31.9 4.10039 31.6L0.100391 24.6C0.000390626 24.4 0.000390626 24.2 0.100391 24C0.200391 23.8 0.300391 23.6 0.600391 23.6L28.6004 13.6C28.9004 13.5 29.3004 13.6 29.5004 13.9L33.5004 20.9C33.6004 21.1 33.6004 21.3 33.6004 21.5C33.5004 21.7 33.4004 21.9 33.1004 21.9L5.00039 32C4.90039 32 4.80039 32 4.80039 32ZM1.90039 24.7L5.10039 30.4L31.7004 20.9L28.5004 15.2L1.90039 24.7Z" fill="#2B2929"/>
<path d="M36.8008 14.2L64.8008 24.2L60.8008 31.2L32.8008 21.2L36.8008 14.2Z" fill="white"/>
<path d="M60.7993 31.9999C60.6993 31.9999 60.5993 31.9999 60.4993 31.9999L32.4993 21.9999C32.2993 21.8999 32.0993 21.7999 31.9993 21.5999C31.8993 21.3999 31.8993 21.1999 32.0993 20.9999L36.0993 13.9999C36.2993 13.6999 36.6993 13.4999 36.9993 13.6999L64.9993 23.6999C65.1993 23.7999 65.3993 23.8999 65.4993 24.0999C65.5993 24.2999 65.5993 24.4999 65.3993 24.6999L61.3993 31.6999C61.2993 31.8999 60.9993 31.9999 60.7993 31.9999ZM33.8993 20.7999L60.4993 30.2999L63.6993 24.5999L37.0993 15.0999L33.8993 20.7999Z" fill="#2B2929"/>
<path d="M32.8008 66.1999L4.80078 56.2V31.2L32.8008 41.2V66.1999Z" fill="white"/>
<path d="M26.4008 59.7999L4.80078 52V31.2L27.8008 39.4V58.7999C27.8008 59.5 27.1008 60 26.4008 59.7999Z" fill="white"/>
<path d="M32.8 67C32.7 67 32.6 67 32.5 67L4.5 57C4.2 56.9 4 56.6 4 56.3V31.3C4 31.1 4.1 30.8 4.3 30.7C4.5 30.6 4.8 30.5 5 30.6L33 40.6C33.3 40.7 33.5 41 33.5 41.3V66.3C33.5 66.5 33.4 66.8 33.2 66.9C33.1 67 32.9 67 32.8 67ZM5.5 55.7L32 65.2V41.8L5.5 32.3V55.7Z" fill="#2B2929"/>
<path d="M28.8008 48.2L0.800781 38.2L4.80078 31.2L32.8008 41.2L28.8008 48.2Z" fill="white"/>
<path d="M24.1992 43.7L2.19922 35.7999L4.79922 31.2L28.3992 39.5999L26.5992 42.7C26.0992 43.6 25.0992 44 24.1992 43.7Z" fill="white"/>
<path d="M28.8 49C28.7 49 28.6 49 28.5 49L0.5 39C0.3 38.9 0.1 38.8 0 38.6C0 38.3 3.7998e-07 38.1 0.1 37.9L4.1 30.9C4.3 30.6 4.7 30.4 5 30.6L33 40.6C33.2 40.7 33.4 40.8 33.5 41C33.6 41.2 33.6 41.4 33.4 41.6L29.4 48.6C29.3 48.9 29 49 28.8 49ZM1.9 37.8L28.5 47.3L31.7 41.6L5.1 32.1L1.9 37.8Z" fill="#2B2929"/>
<path d="M32.8008 66.1999L60.8008 56.2V31.2L32.8008 41.2V66.1999Z" fill="white"/>
<path d="M32.8008 61.7999L55.5008 53.7C56.3008 53.4 56.8008 52.6999 56.8008 51.7999V32.7L32.8008 41.2999V61.7999Z" fill="white"/>
<path d="M32.7996 67C32.5996 67 32.4996 67 32.3996 66.9C32.1996 66.8 32.0996 66.5 32.0996 66.3V41.3C32.0996 41 32.2996 40.7 32.5996 40.6L60.5996 30.6C60.7996 30.5 61.0996 30.6 61.2996 30.7C61.4996 30.8 61.5996 31.1 61.5996 31.3V56.3C61.5996 56.6 61.3996 56.9 61.0996 57L32.9996 67C32.8996 67 32.7996 67 32.7996 67ZM33.4996 41.8V65.2L59.9996 55.7V32.3L33.4996 41.8Z" fill="#2B2929"/>
<path d="M36.8008 48.2L64.8008 38.2L60.8008 31.2L32.8008 41.2L36.8008 48.2Z" fill="white"/>
<path d="M35.3008 45.6L56.5008 38C57.7008 37.6 58.2008 36.2 57.6008 35.1L56.3008 32.8L32.8008 41.2001L35.3008 45.6Z" fill="white"/>
<path d="M36.8004 49C36.5004 49 36.3004 48.9 36.1004 48.6L32.1004 41.6C32.0004 41.4 32.0004 41.2 32.1004 41C32.2004 40.8 32.3004 40.6 32.6004 40.6L60.6004 30.6C60.9004 30.5 61.3004 30.6 61.5004 30.9L65.5004 37.9C65.6004 38.1 65.6004 38.3 65.6004 38.5C65.5004 38.7 65.4004 38.9 65.1004 38.9L37.0004 49C36.9004 49 36.8004 49 36.8004 49ZM33.9004 41.7L37.1004 47.4L63.7004 37.9L60.5004 32.2L33.9004 41.7Z" fill="#2B2929"/>
<path d="M38.8008 15.5V35.7999H26.8008V15.5H18.8008L32.8008 1.19995L46.7008 15.5H38.8008Z" fill="white"/>
<path d="M33.3002 35H27.5002V15.5C27.5002 15.1 27.2002 14.7 26.7002 14.7H20.5002L32.8002 2.3L36.0002 5.6C36.1002 5.7 36.2002 5.7 36.3002 5.6L37.0002 4.8C37.1002 4.7 37.1002 4.6 37.0002 4.5L33.3002 0.7C33.2002 0.6 33.0002 0.5 32.8002 0.5C32.6002 0.5 32.4002 0.6 32.3002 0.7L18.2002 15C18.0002 15.2 17.9002 15.5 18.0002 15.8C18.1002 16.1 18.4002 16.3 18.7002 16.3H26.0002V35.8C26.0002 36.2 26.3002 36.6 26.8002 36.6H33.3002C33.4002 36.6 33.5002 36.5 33.5002 36.4V35.3C33.5002 35.1 33.4002 35 33.3002 35Z" fill="#FFBC57"/>
<path d="M38 5.89995L37.2 6.69995C37.1 6.79995 37.1 6.89995 37.2 6.99995L44.9 14.8H38.7C38.3 14.8 37.9 15.1 37.9 15.6V35H35.1C35 35 35 35.1 35 35.2V36.2999C35 36.4 35.1 36.5 35.2 36.5H38.8C39.2 36.5 39.6 36.2 39.6 35.7V16.3H46.8C47.1 16.3 47.4 16.1 47.5 15.8C47.6 15.5 47.6 15.2 47.3 15L38.4 5.89995C38.3 5.79995 38.1 5.79995 38 5.89995Z" fill="#2B2929"/>
</svg>
