<svg width="66" height="66" viewBox="0 0 66 66" fill="none" xmlns="http://www.w3.org/2000/svg">
<path d="M33.1975 64.7178C50.8266 64.7178 65.1177 50.4267 65.1177 32.7976C65.1177 15.1686 50.8266 0.877441 33.1975 0.877441C15.5685 0.877441 1.27734 15.1686 1.27734 32.7976C1.27734 50.4267 15.5685 64.7178 33.1975 64.7178Z" fill="white"/>
<path d="M33.1967 65.4165C15.1419 65.4165 0.478516 50.7532 0.478516 32.6983C0.478516 14.6434 15.1419 0.079834 33.1967 0.079834C51.2516 0.079834 65.8152 14.7432 65.8152 32.798C65.8152 50.8529 51.1518 65.4165 33.1967 65.4165ZM33.1967 1.57609C15.9399 1.57609 1.97478 15.5412 1.97478 32.798C1.97478 49.9552 15.9399 64.02 33.1967 64.02C50.3538 64.02 64.4187 50.0549 64.4187 32.798C64.3189 15.5412 50.3538 1.57609 33.1967 1.57609Z" fill="#2B2929"/>
<path d="M32.5992 20.8276L26.3149 16.6381C22.2251 13.9449 16.8386 14.5434 13.5468 18.1344L8.26003 23.8202C7.26252 24.9174 6.76377 26.3139 6.96327 27.8102L10.9533 59.2316C11.1528 60.8277 12.6491 62.0247 14.2451 61.8252L35.9907 59.1319C37.5867 58.9324 38.7837 57.4361 38.5842 55.8401L34.6939 24.4187C34.5942 22.9224 33.7962 21.6257 32.5992 20.8276Z" fill="white"/>
<path d="M13.9441 62.5238C13.1461 62.5238 12.3481 62.2245 11.6498 61.7258C10.8518 61.1273 10.3531 60.2295 10.2533 59.232L6.36306 27.9103C6.16356 26.2146 6.66231 24.5188 7.85932 23.3218L13.1461 17.636C16.7371 13.7457 22.5227 13.0475 26.9117 16.04L33.196 20.2295C34.5925 21.1273 35.4902 22.6235 35.6897 24.3193L39.58 55.7407C39.6798 56.7383 39.4803 57.7358 38.782 58.5338C38.1835 59.3318 37.2858 59.8305 36.2882 59.9303L14.5426 62.6235C14.2434 62.5238 14.0439 62.5238 13.9441 62.5238ZM20.8269 15.641C18.3331 15.641 15.9391 16.6385 14.1436 18.6335L8.85683 24.3193C8.05882 25.2171 7.65982 26.5138 7.75957 27.7108L11.6498 59.0325C11.7496 59.631 12.0488 60.1298 12.5476 60.5288C13.0464 60.9278 13.6449 61.0275 14.2434 61.0275L35.989 58.3343C36.5875 58.2345 37.0863 57.9353 37.4853 57.4365C37.8843 56.9378 37.984 56.3393 37.984 55.7407L34.0937 24.3193C33.8942 23.1223 33.2957 22.025 32.2982 21.3268L25.9142 17.237C24.4179 16.2395 22.6224 15.641 20.8269 15.641Z" fill="#2B2929"/>
<path d="M38.0843 11.0521L30.9023 8.75785C26.3137 7.2616 21.2265 9.35636 19.0319 13.7454L15.5407 20.6282C14.9422 21.9249 14.9422 23.5209 15.5407 24.8177L27.9098 53.9449C28.608 55.4411 30.3038 56.1394 31.8 55.5409L52.0494 46.8626C53.5457 46.2641 54.2439 44.4686 53.6454 42.9723L41.1766 13.8451C40.5781 12.5484 39.4808 11.5509 38.0843 11.0521Z" fill="white"/>
<path d="M30.6023 56.4391C29.1061 56.4391 27.8093 55.5413 27.111 54.1448L14.8417 25.1174C14.1435 23.5213 14.2432 21.8256 14.9415 20.3293L18.4327 13.4465C20.8268 8.75826 26.2133 6.46399 31.2008 8.06L38.3829 10.3543C39.9789 10.853 41.2756 12.05 41.8741 13.5463L54.2432 42.6735C55.0412 44.5687 54.1435 46.7632 52.2482 47.5612L32.0986 56.1398C31.5998 56.3393 31.1011 56.4391 30.6023 56.4391ZM27.909 9.05751C24.5175 9.05751 21.4253 10.9528 19.8292 14.1448L16.338 21.0276C15.7395 22.1248 15.7395 23.4216 16.2382 24.6186L28.6073 53.646C29.1061 54.7433 30.4028 55.3418 31.5998 54.843L51.7494 46.2645C52.8467 45.7657 53.4452 44.469 52.9465 43.272L40.4776 14.1448C39.9789 13.0475 39.0811 12.1498 37.8841 11.7508L30.7021 9.45651C29.8043 9.15726 28.8068 9.05751 27.909 9.05751Z" fill="#2B2929"/>
<path d="M27.8093 23.4214C27.1111 23.4214 26.5126 23.3216 25.8143 23.0224C24.5175 22.5236 23.52 21.5261 22.9215 20.2294C22.323 18.9326 22.323 17.5361 22.9215 16.2394C23.4203 14.9426 24.4178 13.9451 25.7146 13.3466C27.0113 12.7481 28.4078 12.7481 29.7046 13.3466C31.0013 13.8453 31.9988 14.8428 32.5973 16.1396C33.1958 17.4364 33.1958 18.8329 32.5973 20.1296C32.0986 21.4264 31.1011 22.4239 29.8043 23.0224C29.2058 23.2219 28.5076 23.4214 27.8093 23.4214ZM27.8093 14.4438C27.3106 14.4438 26.8118 14.5436 26.3131 14.7431C25.4153 15.1421 24.717 15.8403 24.318 16.7381C23.919 17.6359 23.919 18.6334 24.318 19.6309C24.717 20.5286 25.4153 21.2269 26.3131 21.6259C27.2108 22.0249 28.2083 22.0249 29.2058 21.6259C30.1036 21.2269 30.8018 20.5286 31.2008 19.6309C31.5998 18.7331 31.5998 17.7356 31.2008 16.7381C30.8018 15.8403 30.1036 15.1421 29.1061 14.7431C28.8068 14.5436 28.3081 14.4438 27.8093 14.4438Z" fill="#2B2929"/>
<path d="M29.4066 19.4311C28.2096 19.4311 27.4116 18.8326 27.0126 18.3339C26.1148 17.2366 26.0151 15.5409 26.6136 13.4461C26.7133 13.0471 27.1123 12.8476 27.5113 12.9474C27.9103 13.0471 28.1098 13.4461 28.0101 13.8451C27.5113 15.3414 27.6111 16.7379 28.1098 17.3364C28.4091 17.7354 28.9078 17.8351 29.5063 17.8351C31.9004 17.6356 35.2919 14.5434 36.8879 11.0521C38.0849 8.55833 37.8854 6.86256 37.3866 6.16431C37.0874 5.76531 36.5886 5.56581 35.9901 5.56581C34.4939 5.66556 32.4989 6.96232 30.8031 8.95733C30.5038 9.25658 30.1048 9.35633 29.7058 9.05708C29.4066 8.75783 29.3068 8.35882 29.6061 7.95982C31.6011 5.66556 33.8954 4.1693 35.8904 3.9698C37.0874 3.87005 38.0849 4.26905 38.6834 5.1668C39.6809 6.56331 39.4814 8.95733 38.2844 11.5508C36.3891 15.6406 32.5986 19.0321 29.6061 19.2316C29.6061 19.4311 29.5063 19.4311 29.4066 19.4311Z" fill="#2B2929"/>
<path d="M31.7003 49.5562C31.6006 49.5562 31.5008 49.5562 31.4011 49.4565C31.0021 49.257 30.8026 48.858 31.0021 48.459L39.9796 26.2146C40.1792 25.8156 40.5782 25.6161 40.9772 25.8156C41.3762 26.0151 41.5757 26.4141 41.3762 26.8131L32.3986 49.0575C32.2989 49.3567 31.9996 49.5562 31.7003 49.5562Z" fill="#FFBC57"/>
<path d="M31.8006 33.6956C32.4989 35.1918 31.7009 36.9873 30.2046 37.6856C28.7084 38.3838 26.9128 37.5858 26.2146 36.0896C25.5163 34.5933 26.3143 32.7978 27.8106 32.0996C29.4066 31.4013 31.2021 32.0996 31.8006 33.6956Z" fill="white"/>
<path d="M29.0074 38.5835C28.5086 38.5835 28.0099 38.4838 27.6109 38.2843C26.7131 37.8853 25.9151 37.187 25.5161 36.2893C24.7181 34.394 25.6158 32.1995 27.5111 31.3017C29.4064 30.5037 31.6009 31.4015 32.4986 33.2967C32.8976 34.1945 32.8976 35.2918 32.4986 36.1895C32.0996 37.0873 31.4014 37.8853 30.5036 38.2843C30.0049 38.4838 29.5061 38.5835 29.0074 38.5835ZM29.0074 32.5985C28.7081 32.5985 28.4089 32.6982 28.1096 32.798C26.9126 33.2967 26.4138 34.5935 26.9126 35.7905C27.1121 36.389 27.6109 36.788 28.1096 36.9875C28.7081 37.187 29.3066 37.187 29.8054 36.9875C30.4039 36.788 30.8029 36.2893 31.0024 35.7905C31.2019 35.192 31.2019 34.5935 31.0024 34.0947C30.7031 33.0972 29.9051 32.5985 29.0074 32.5985Z" fill="#FFBC57"/>
<path d="M46.0643 39.3815C46.7626 40.8778 45.9646 42.6733 44.4683 43.3716C42.972 44.0698 41.1765 43.2718 40.4783 41.7756C39.78 40.2793 40.578 38.4838 42.0743 37.7855C43.6703 37.187 45.4658 37.8853 46.0643 39.3815Z" fill="white"/>
<path d="M43.271 44.3687C41.7748 44.3687 40.3783 43.4709 39.7798 42.0744C38.9818 40.1792 39.8795 37.9846 41.7748 37.0869C43.67 36.2889 45.8645 37.1866 46.7623 39.0819C47.5603 40.9772 46.6626 43.1717 44.7673 44.0694C44.2685 44.2689 43.7698 44.3687 43.271 44.3687ZM43.271 38.2839C42.9718 38.2839 42.6725 38.3836 42.3733 38.4834C41.1763 38.9821 40.6775 40.2789 41.1763 41.4759C41.675 42.6729 42.9718 43.1717 44.1688 42.6729C45.3658 42.1742 45.8645 40.8774 45.3658 39.6804C45.0665 38.8824 44.1688 38.2839 43.271 38.2839Z" fill="#FFBC57"/>
<path d="M14.343 45.9648C13.944 45.9648 13.6447 45.6656 13.6447 45.2666L11.8492 30.6032C11.7494 30.2042 12.0487 29.8052 12.5474 29.8052C12.9464 29.7055 13.3454 30.0047 13.3454 30.5035L15.141 45.1668C15.141 45.5658 14.8417 45.8651 14.343 45.9648C14.343 45.9648 14.4427 45.9648 14.343 45.9648Z" fill="#2B2929"/>
<path d="M15.4407 54.4438C15.0417 54.4438 14.7425 54.1446 14.7425 53.7456L14.2437 49.7555C14.144 49.3565 14.4432 48.9575 14.942 48.9575C15.341 48.9575 15.74 49.157 15.74 49.6558L16.2387 53.6458C16.139 53.9451 15.9395 54.3441 15.4407 54.4438Z" fill="#2B2929"/>
</svg>
