<svg width="66" height="55" viewBox="0 0 66 55" fill="none" xmlns="http://www.w3.org/2000/svg">
<path d="M63.0361 29.6297L57.9003 27.4568H44.0732C41.9003 27.4568 40.1226 25.6791 40.1226 23.5062V8.69141H33.209V48.1976H60.6658C61.4559 48.1976 62.246 47.9013 62.7398 47.3087L63.925 46.1235C64.5176 45.5309 64.8139 44.8396 64.8139 44.0494V32.2963C64.8139 31.1112 64.1226 30.0247 63.0361 29.6297Z" fill="white"/>
<path d="M57.1102 29.6297L51.9744 27.4568H44.0732C41.9003 27.4568 40.1226 25.6791 40.1226 23.5062V8.69141H33.209V48.1976H54.7398C55.53 48.1976 56.3201 47.9013 56.8139 47.3087L57.9991 46.1235C58.5917 45.5309 58.888 44.8396 58.888 44.0494V32.2963C58.888 31.1112 58.1966 30.0247 57.1102 29.6297Z" fill="white"/>
<path d="M54.9375 35.3574L57.9005 41.2833H64.814V35.3574H54.9375Z" fill="white"/>
<path d="M54.9375 35.3574L56.9128 39.308H60.8634C61.456 39.308 61.8511 38.913 61.8511 38.3204V35.3574H54.9375Z" fill="white"/>
<path d="M64.8138 41.9748H57.9003C57.604 41.9748 57.4064 41.7773 57.2089 41.5797L54.2459 35.6538C54.1472 35.4563 54.1472 35.16 54.2459 34.9624C54.3447 34.7649 54.641 34.5674 54.8385 34.5674H64.7151C65.1101 34.5674 65.5052 34.8637 65.5052 35.3575V41.2834C65.604 41.6785 65.3077 41.9748 64.8138 41.9748ZM58.3941 40.4933H64.1225V36.0489H56.2213L58.3941 40.4933Z" fill="#2B2929"/>
<path d="M44.0737 27.4568H57.9008L50.2959 11.9507C49.3082 9.97536 47.2342 8.69141 44.9626 8.69141H40.123V23.5062C40.123 25.6791 41.9008 27.4568 44.0737 27.4568Z" fill="white"/>
<path d="M50.2959 11.9507C49.3082 9.97536 47.2342 8.69141 44.9626 8.69141H40.123C42.2959 8.69141 44.37 9.97536 45.3576 11.9507L52.9626 27.4568H57.9008L50.2959 11.9507Z" fill="white"/>
<path d="M57.8999 28.1483H44.0728C41.5049 28.1483 39.332 26.0742 39.332 23.5063V8.69149C39.332 8.29643 39.6283 7.90137 40.1222 7.90137H44.9617C47.5296 7.90137 49.8012 9.28408 50.9864 11.6545L58.5913 27.1606C58.6901 27.3582 58.6901 27.6545 58.5913 27.852C58.3938 28.0495 58.1962 28.1483 57.8999 28.1483ZM40.9123 9.38285V23.5063C40.9123 25.2841 42.3938 26.6668 44.1715 26.6668H56.8135L49.7024 12.247C48.8135 10.4693 47.0357 9.38285 45.0604 9.38285H40.9123Z" fill="#2B2929"/>
<path d="M3.58078 0.790039C2.49436 0.790039 1.60547 1.67893 1.60547 2.76535V46.2221C1.60547 47.3086 2.49436 48.1974 3.58078 48.1974H33.2104V2.76535C33.2104 1.67893 32.3215 0.790039 31.2351 0.790039H3.58078Z" fill="white"/>
<path d="M3.58078 0.790039C2.49436 0.790039 1.60547 1.67893 1.60547 2.76535V43.2592H25.3092C26.3956 43.2592 27.2845 42.3703 27.2845 41.2839V0.790039H3.58078Z" fill="white"/>
<path d="M33.2095 48.8889H3.57989C2.0984 48.8889 0.814453 47.7037 0.814453 46.1235V2.66667C0.913219 1.18518 2.0984 0 3.57989 0H31.2342C32.7157 0 33.9996 1.18519 33.9996 2.76543V48.1975C33.9996 48.5926 33.7033 48.8889 33.2095 48.8889ZM3.57989 1.48148C2.88853 1.48148 2.29593 2.07407 2.29593 2.76543V46.2222C2.29593 46.9136 2.88853 47.5062 3.57989 47.5062H32.5182V2.76543C32.5182 2.07407 31.9256 1.48148 31.2342 1.48148H3.57989Z" fill="#2B2929"/>
<path d="M60.6668 48.8882H33.21C32.815 48.8882 32.4199 48.5919 32.4199 48.0981V8.59188C32.4199 8.19682 32.7162 7.80176 33.21 7.80176H40.1236C40.5187 7.80176 40.9137 8.09805 40.9137 8.59188V23.4067C40.9137 25.1845 42.3952 26.5672 44.173 26.5672H58.0002C58.0989 26.5672 58.1977 26.5672 58.2965 26.666L63.4323 28.8388C64.815 29.4314 65.7039 30.7153 65.7039 32.1968V43.8511C65.7039 44.8388 65.3088 45.7277 64.6175 46.5178L63.4323 47.703C62.5434 48.4931 61.6545 48.8882 60.6668 48.8882ZM34.0002 47.4067H60.6668C61.2594 47.4067 61.852 47.2092 62.2471 46.7153L63.4323 45.5302C63.8273 45.1351 64.1236 44.5425 64.1236 43.9499V32.2956C64.1236 31.4067 63.6298 30.6166 62.7409 30.2215L57.8026 28.0487H44.0742C41.5063 28.0487 39.3335 25.9746 39.3335 23.4067V9.38201H33.9014V47.4067H34.0002Z" fill="#2B2929"/>
<path d="M17.4064 54.1233C20.6792 54.1233 23.3323 51.4702 23.3323 48.1974C23.3323 44.9246 20.6792 42.2715 17.4064 42.2715C14.1336 42.2715 11.4805 44.9246 11.4805 48.1974C11.4805 51.4702 14.1336 54.1233 17.4064 54.1233Z" fill="white"/>
<path d="M20.5675 43.0615C21.1601 43.9504 21.4564 45.0368 21.4564 46.1233C21.4564 49.3825 18.7897 52.0492 15.5305 52.0492C14.4441 52.0492 13.3576 51.7529 12.4688 51.1603C13.5552 52.8393 15.3329 54.0245 17.5058 54.0245C20.765 54.0245 23.4317 51.3578 23.4317 48.0986C23.3329 46.0245 22.2465 44.1479 20.5675 43.0615Z" fill="white"/>
<path d="M17.4075 54.8149C13.7531 54.8149 10.6914 51.8519 10.6914 48.0989C10.6914 44.4445 13.6544 41.3828 17.4075 41.3828C21.1605 41.3828 24.1235 44.3458 24.1235 48.0989C24.1235 51.8519 21.1605 54.8149 17.4075 54.8149ZM17.4075 42.9631C14.5433 42.9631 12.1729 45.3334 12.1729 48.1976C12.1729 51.0618 14.5433 53.4322 17.4075 53.4322C20.2717 53.4322 22.642 51.0618 22.642 48.1976C22.642 45.3334 20.2717 42.9631 17.4075 42.9631Z" fill="#2B2929"/>
<path d="M17.4069 50.1723C18.4979 50.1723 19.3823 49.2879 19.3823 48.197C19.3823 47.1061 18.4979 46.2217 17.4069 46.2217C16.316 46.2217 15.4316 47.1061 15.4316 48.197C15.4316 49.2879 16.316 50.1723 17.4069 50.1723Z" fill="white"/>
<path d="M17.408 50.8639C15.9265 50.8639 14.6426 49.6787 14.6426 48.0984C14.6426 46.617 15.8278 45.333 17.408 45.333C18.9883 45.333 20.1734 46.5182 20.1734 48.0984C20.1734 49.6787 18.9883 50.8639 17.408 50.8639ZM17.408 46.9133C16.7167 46.9133 16.1241 47.5058 16.1241 48.1972C16.1241 48.8886 16.7167 49.4812 17.408 49.4812C18.0994 49.4812 18.692 48.8886 18.692 48.1972C18.692 47.5058 18.0994 46.9133 17.408 46.9133Z" fill="#2B2929"/>
<path d="M49.0119 54.1233C52.2847 54.1233 54.9378 51.4702 54.9378 48.1974C54.9378 44.9246 52.2847 42.2715 49.0119 42.2715C45.7391 42.2715 43.0859 44.9246 43.0859 48.1974C43.0859 51.4702 45.7391 54.1233 49.0119 54.1233Z" fill="white"/>
<path d="M52.173 43.0615C52.7656 43.9504 53.0619 45.0368 53.0619 46.1233C53.0619 49.3825 50.3952 52.0492 47.1359 52.0492C46.0495 52.0492 44.9631 51.7529 44.0742 51.1603C45.1606 52.8393 46.9384 54.0245 49.1113 54.0245C52.3705 54.0245 55.0372 51.3578 55.0372 48.0986C54.9384 46.0245 53.852 44.1479 52.173 43.0615Z" fill="white"/>
<path d="M49.0129 54.8149C45.3586 54.8149 42.2969 51.8519 42.2969 48.0989C42.2969 44.4445 45.2598 41.3828 49.0129 41.3828C52.6672 41.3828 55.729 44.3458 55.729 48.0989C55.729 51.8519 52.766 54.8149 49.0129 54.8149ZM49.0129 42.9631C46.1487 42.9631 43.7784 45.3334 43.7784 48.1976C43.7784 51.0618 46.1487 53.4322 49.0129 53.4322C51.8771 53.4322 54.2475 51.0618 54.2475 48.1976C54.2475 45.3334 51.8771 42.9631 49.0129 42.9631Z" fill="#2B2929"/>
<path d="M49.0124 50.1723C50.1034 50.1723 50.9877 49.2879 50.9877 48.197C50.9877 47.1061 50.1034 46.2217 49.0124 46.2217C47.9215 46.2217 47.0371 47.1061 47.0371 48.197C47.0371 49.2879 47.9215 50.1723 49.0124 50.1723Z" fill="white"/>
<path d="M49.0115 50.8639C47.53 50.8639 46.2461 49.6787 46.2461 48.0984C46.2461 46.617 47.4313 45.333 49.0115 45.333C50.493 45.333 51.777 46.5182 51.777 48.0984C51.777 49.6787 50.5918 50.8639 49.0115 50.8639ZM49.0115 46.9133C48.3202 46.9133 47.7276 47.5058 47.7276 48.1972C47.7276 48.8886 48.3202 49.4812 49.0115 49.4812C49.7029 49.4812 50.2955 48.8886 50.2955 48.1972C50.2955 47.5058 49.7029 46.9133 49.0115 46.9133Z" fill="#2B2929"/>
<path d="M45.0611 32.0988H41.1104C40.7154 32.0988 40.3203 31.8025 40.3203 31.3087C40.3203 30.9136 40.6166 30.5186 41.1104 30.5186H45.0611C45.4561 30.5186 45.8512 30.8149 45.8512 31.3087C45.8512 31.8025 45.5549 32.0988 45.0611 32.0988Z" fill="#2B2929"/>
<path d="M28.2724 26.173H6.54403C6.14897 26.173 5.75391 25.8767 5.75391 25.3829C5.75391 24.9878 6.0502 24.5928 6.54403 24.5928H28.2724C28.6675 24.5928 29.0625 24.8891 29.0625 25.3829C29.0625 25.8767 28.7663 26.173 28.2724 26.173Z" fill="#FFBC57"/>
<path d="M28.2724 32.0988H6.54403C6.14897 32.0988 5.75391 31.8025 5.75391 31.3087C5.75391 30.9136 6.0502 30.5186 6.54403 30.5186H28.2724C28.6675 30.5186 29.0625 30.8149 29.0625 31.3087C29.0625 31.8025 28.7663 32.0988 28.2724 32.0988Z" fill="#FFBC57"/>
<path d="M28.2705 38.0246H6.54208C6.14702 38.0246 5.75195 37.7283 5.75195 37.2345C5.75195 36.8394 6.04825 36.4443 6.54208 36.4443H28.2705C28.6655 36.4443 29.0606 36.7406 29.0606 37.2345C29.0606 37.7283 28.7643 38.0246 28.2705 38.0246Z" fill="#FFBC57"/>
<path d="M28.2724 20.2463H6.54403C6.14897 20.2463 5.75391 19.95 5.75391 19.4561C5.75391 19.0611 6.0502 18.666 6.54403 18.666H28.2724C28.6675 18.666 29.0625 18.9623 29.0625 19.4561C29.0625 19.95 28.7663 20.2463 28.2724 20.2463Z" fill="#FFBC57"/>
<path d="M28.2705 14.3205H6.54208C6.14702 14.3205 5.75195 14.0242 5.75195 13.5304C5.75195 13.1353 6.04825 12.7402 6.54208 12.7402H28.2705C28.6655 12.7402 29.0606 13.0365 29.0606 13.5304C29.0606 14.0242 28.7643 14.3205 28.2705 14.3205Z" fill="#2B2929"/>
<path d="M28.2705 8.3947H6.54208C6.14702 8.3947 5.75195 8.0984 5.75195 7.60458C5.75195 7.20952 6.04825 6.81445 6.54208 6.81445H28.2705C28.6655 6.81445 29.0606 7.11075 29.0606 7.60458C29.0606 8.0984 28.7643 8.3947 28.2705 8.3947Z" fill="#2B2929"/>
</svg>
