<svg width="80" height="80" viewBox="0 0 80 80" fill="none" xmlns="http://www.w3.org/2000/svg">
<path d="M66.1729 40.8023C73.8094 40.8023 80 34.6116 80 26.9751C80 19.3386 73.8094 13.1479 66.1729 13.1479C58.5363 13.1479 52.3457 19.3386 52.3457 26.9751C52.3457 34.6116 58.5363 40.8023 66.1729 40.8023Z" fill="#FFBC57"/>
<path d="M34.2718 24.7037C40.8174 24.7037 46.1236 19.3974 46.1236 12.8519C46.1236 6.30625 40.8174 1 34.2718 1C27.7262 1 22.4199 6.30625 22.4199 12.8519C22.4199 19.3974 27.7262 24.7037 34.2718 24.7037Z" fill="#FFBC57"/>
<path d="M19.7531 78.5308C30.6624 78.5308 39.5062 69.6871 39.5062 58.7777C39.5062 47.8684 30.6624 39.0247 19.7531 39.0247C8.84376 39.0247 0 47.8684 0 58.7777C0 69.6871 8.84376 78.5308 19.7531 78.5308Z" fill="#FFBC57"/>
</svg>
