<svg width="70" height="70" viewBox="0 0 70 70" fill="none" xmlns="http://www.w3.org/2000/svg">
<g clip-path="url(#clip0_206_1292)">
<circle cx="35" cy="35" r="35" fill="#F8F8F8"/>
<path d="M49.7885 23.011C47.8641 21.0817 45.3133 19.9041 42.5967 19.6911C39.8801 19.478 37.1768 20.2435 34.9753 21.8492C32.6655 20.1312 29.7906 19.3522 26.9295 19.669C24.0684 19.9859 21.4336 21.375 19.5557 23.5567C17.6778 25.7384 16.6962 28.5506 16.8088 31.427C16.9213 34.3034 18.1195 37.0303 20.1621 39.0587L31.4353 50.3501C32.3794 51.2792 33.6508 51.7999 34.9753 51.7999C36.2998 51.7999 37.5712 51.2792 38.5152 50.3501L49.7885 39.0587C51.908 36.9261 53.0977 34.0415 53.0977 31.0348C53.0977 28.0281 51.908 25.1436 49.7885 23.011ZM47.2288 36.5535L35.9555 47.8268C35.8273 47.9563 35.6746 48.0591 35.5063 48.1293C35.3381 48.1995 35.1576 48.2356 34.9753 48.2356C34.793 48.2356 34.6125 48.1995 34.4442 48.1293C34.2759 48.0591 34.1233 47.9563 33.995 47.8268L22.7217 36.499C21.298 35.0437 20.5008 33.0888 20.5008 31.053C20.5008 29.0171 21.298 27.0622 22.7217 25.607C24.1724 24.1746 26.129 23.3715 28.1677 23.3715C30.2064 23.3715 32.163 24.1746 33.6138 25.607C33.7825 25.7771 33.9833 25.9122 34.2045 26.0043C34.4257 26.0965 34.663 26.1439 34.9026 26.1439C35.1423 26.1439 35.3796 26.0965 35.6008 26.0043C35.822 25.9122 36.0228 25.7771 36.1915 25.607C37.6423 24.1746 39.5989 23.3715 41.6376 23.3715C43.6763 23.3715 45.6329 24.1746 47.0836 25.607C48.5268 27.0432 49.3502 28.9875 49.3774 31.0234C49.4045 33.0593 48.6333 35.0248 47.2288 36.499V36.5535Z" fill="#B1B1B1"/>
</g>
<defs>
<clipPath id="clip0_206_1292">
<rect width="70" height="70" fill="white"/>
</clipPath>
</defs>
</svg>
